<?xml version="1.0" encoding="UTF-8" standalone="no"?>
<svg
   xmlns:dc="http://purl.org/dc/elements/1.1/"
   xmlns:cc="http://creativecommons.org/ns#"
   xmlns:rdf="http://www.w3.org/1999/02/22-rdf-syntax-ns#"
   xmlns:svg="http://www.w3.org/2000/svg"
   xmlns="http://www.w3.org/2000/svg"
   xmlns:sodipodi="http://sodipodi.sourceforge.net/DTD/sodipodi-0.dtd"
   xmlns:inkscape="http://www.inkscape.org/namespaces/inkscape"
   version="1.0"
   width="52"
   height="52"
   viewBox="0 0 39 39"
   preserveAspectRatio="xMidYMid meet"
   id="svg14"
   sodipodi:docname="logo.svg"
   inkscape:version="0.92.3 (2405546, 2018-03-11)">
  <defs
     id="defs18" />
  <sodipodi:namedview
     pagecolor="#ffffff"
     bordercolor="#666666"
     borderopacity="1"
     objecttolerance="10"
     gridtolerance="10"
     guidetolerance="10"
     inkscape:pageopacity="0"
     inkscape:pageshadow="2"
     inkscape:window-width="2560"
     inkscape:window-height="1361"
     id="namedview16"
     showgrid="false"
     inkscape:zoom="14.252857"
     inkscape:cx="58.04983"
     inkscape:cy="29.62857"
     inkscape:window-x="2551"
     inkscape:window-y="-9"
     inkscape:window-maximized="1"
     inkscape:current-layer="svg14"
     units="px" />
  <metadata
     id="metadata2">
Created by potrace 1.15, written by Peter Selinger 2001-2017
<rdf:RDF>
  <cc:Work
     rdf:about="">
    <dc:format>image/svg+xml</dc:format>
    <dc:type
       rdf:resource="http://purl.org/dc/dcmitype/StillImage" />
    <dc:title></dc:title>
  </cc:Work>
</rdf:RDF>
</metadata>
  <g
     transform="matrix(0.01451224,0,0,-0.01425499,-1.426836,39.176576)"
     id="g12"
     style="fill:#000000;stroke:none">
    <path
       d="m 1005,2694 c -267,-26 -379,-51 -505,-111 -78,-37 -108,-59 -165,-118 -38,-39 -91,-107 -117,-151 -47,-78 -48,-82 -58,-199 -5,-66 -10,-214 -10,-330 0,-284 19,-925 30,-1002 18,-133 118,-292 228,-362 100,-64 314,-129 555,-171 137,-23 205,-26 367,-16 147,10 184,2 279,-55 35,-21 107,-56 160,-76 l 96,-38 160,1 c 173,1 259,17 373,69 201,92 335,354 336,655 2,240 -110,436 -335,585 -111,74 -153,125 -165,200 -3,24 2,114 11,202 10,87 20,182 23,212 2,30 -1,100 -8,155 -12,96 -16,105 -66,182 -170,259 -428,359 -949,369 -110,1 -218,1 -240,-1 z m 570,-43 c 302,-45 473,-140 601,-333 37,-56 47,-81 60,-155 17,-96 16,-140 -12,-386 -28,-248 -7,-304 151,-409 153,-101 239,-201 294,-339 59,-148 63,-247 20,-449 -41,-187 -161,-362 -292,-424 -114,-53 -197,-69 -372,-70 -159,-1 -160,-1 -245,33 -47,18 -125,57 -175,85 l -89,51 h -116 c -63,-1 -160,-2 -215,-3 -109,-3 -263,19 -437,63 -323,82 -440,165 -518,366 -29,76 -32,93 -41,282 -16,307 -17,1171 -1,1229 17,66 86,180 153,252 122,131 295,195 610,226 141,13 472,3 624,-19 z"
       id="path4"
       inkscape:connector-curvature="0" />
    <path
       d="M 1025,2564 C 882,2545 833,2535 750,2514 537,2459 370,2343 336,2229 312,2150 312,800 335,722 366,618 498,517 685,455 832,405 939,389 1162,383 l 206,-6 26,26 c 31,31 33,56 8,87 -18,22 -25,23 -148,21 -334,-5 -648,77 -757,198 l -37,41 v 136 135 l 31,-22 c 17,-12 67,-37 111,-56 160,-67 358,-103 576,-106 l 144,-2 24,28 c 30,35 30,52 1,81 -22,22 -33,23 -198,29 -313,10 -589,96 -665,207 -22,32 -24,44 -24,163 0,71 3,127 8,125 4,-2 39,-19 77,-39 94,-49 236,-93 370,-115 146,-24 458,-25 595,-1 278,48 475,144 558,271 l 27,41 3,290 c 4,337 2,345 -84,430 -93,91 -256,160 -475,201 -80,15 -444,28 -514,18 z m 490,-155 c 184,-31 332,-89 405,-160 65,-63 66,-113 3,-175 -43,-43 -167,-103 -274,-133 -171,-48 -459,-65 -664,-40 -232,28 -451,117 -505,204 -46,74 -6,143 118,208 214,113 587,152 917,96 z m 450,-725 c -8,-43 -81,-109 -161,-145 -353,-160 -961,-142 -1246,37 -88,55 -98,77 -98,229 0,69 3,125 8,123 269,-137 421,-172 747,-172 216,0 318,13 480,59 89,26 211,78 250,108 20,15 20,14 23,-96 2,-62 0,-126 -3,-143 z"
       id="path6"
       inkscape:connector-curvature="0" />
    <path
       d="m 1915,1318 c -91,-17 -211,-83 -284,-156 -223,-224 -230,-574 -16,-800 118,-125 258,-186 425,-186 250,1 464,157 546,399 35,104 37,245 5,345 -77,242 -308,412 -556,409 -38,-1 -92,-5 -120,-11 z m 206,-128 c 133,-25 256,-120 320,-247 33,-66 34,-71 34,-188 0,-114 -2,-123 -32,-188 -44,-93 -119,-169 -212,-215 -73,-36 -77,-37 -190,-37 -109,0 -120,2 -183,32 -162,77 -259,225 -260,398 -1,100 19,172 70,251 97,150 276,227 453,194 z"
       id="path8"
       inkscape:connector-curvature="0" />
    <path
       d="m 1867,913 c -74,-77 -127,-141 -127,-155 0,-20 27,-57 103,-140 85,-94 109,-105 155,-72 32,22 29,66 -9,109 l -31,35 h 164 c 147,0 167,2 181,18 23,25 21,68 -3,92 -18,18 -33,20 -175,20 -85,0 -155,4 -155,8 0,5 11,19 25,32 31,29 33,72 5,100 -35,35 -62,25 -133,-47 z"
       id="path10"
       inkscape:connector-curvature="0" />
  </g>
  <path
     style="fill:#ffffff;stroke-width:0.07016137"
     d="m 34.070221,50.441423 c -1.126602,-0.244667 -3.295544,-1.21392 -5.544025,-2.477505 l -1.003038,-0.563679 -4.469549,-0.03 C 19.409629,47.345784 18.435025,47.319014 17.777204,47.22531 13.138294,46.56452 8.618995,45.274941 6.461675,43.99643 4.7965871,43.009636 3.806081,41.905776 2.9366823,40.068037 2.1759364,38.459968 1.9861097,37.600258 1.8502823,35.147816 1.6704802,31.901386 1.6298485,29.906758 1.5930218,22.518769 1.5511834,14.125374 1.6078249,11.13711 1.8224564,10.414367 1.9802808,9.8829149 2.5947313,8.6830832 3.115157,7.8901229 5.4503612,4.3320286 8.192372,2.7596922 13.567521,1.8964805 c 2.522788,-0.4051422 2.856661,-0.426274 6.700411,-0.4240878 5.491582,0.00312 8.269755,0.2474665 11.2609,0.9904075 3.865822,0.9601934 6.404937,2.6000063 8.449089,5.4565952 0.848081,1.1851465 1.119271,1.8489187 1.363963,3.3384736 0.289391,1.761655 0.27063,2.591105 -0.140445,6.209281 -0.27002,2.376637 -0.338479,4.444762 -0.172944,5.224554 0.06115,0.288058 0.223635,0.760539 0.36108,1.049959 0.331598,0.698249 1.156679,1.512156 2.347407,2.315613 3.099551,2.091459 4.465632,3.50901 5.582615,5.792955 1.306178,2.6708 1.590744,4.834605 1.04614,7.954731 -0.390857,2.239281 -0.885721,3.694521 -1.799131,5.290676 -0.798369,1.395128 -2.038129,2.812181 -3.106491,3.550738 -1.411138,0.97552 -3.558029,1.653448 -5.789048,1.828021 -1.382607,0.108186 -5.050283,0.08659 -5.600846,-0.03297 z m 4.555016,-1.580777 c 1.4852,-0.151013 2.665687,-0.487014 3.954011,-1.125427 1.094456,-0.542344 1.997798,-1.19242 2.872596,-2.067218 1.595952,-1.595952 2.713225,-3.721584 3.095652,-5.889535 0.169691,-0.961965 0.17254,-2.907011 0.0056,-3.823795 -0.168011,-0.922667 -0.540642,-1.995506 -0.997686,-2.872428 -1.707183,-3.27554 -4.94541,-5.559685 -8.569189,-6.044439 -0.781998,-0.104607 -3.081426,-0.03874 -3.807258,0.10906 -2.190033,0.445954 -4.722604,1.943735 -6.17594,3.652496 -2.564335,3.015018 -3.350658,6.885953 -2.139578,10.532778 0.538684,1.622098 1.339277,2.880492 2.696997,4.239217 1.993091,1.994566 4.067985,2.999849 6.782617,3.286166 0.810281,0.08546 1.463605,0.08636 2.282178,0.0031 z M 25.064996,44.618045 c 0.235436,-0.251682 0.448179,-0.537743 0.472762,-0.63569 0.07447,-0.296708 -0.0195,-0.722182 -0.216555,-0.980536 C 24.937704,42.499026 25.067712,42.519553 21.955,42.470321 19.102384,42.425202 18.058718,42.350525 16.128411,42.05341 13.707762,41.680821 11.387052,41.000197 9.8323187,40.206876 8.8933519,39.727758 8.4643684,39.418218 7.7265872,38.687453 L 7.0425139,38.009886 v -2.540218 c 0,-2.012685 0.018213,-2.529592 0.087702,-2.489056 0.048236,0.02814 0.2139922,0.136394 0.3683472,0.240567 0.6779617,0.457551 2.2406567,1.159203 3.6084559,1.6202 2.961461,0.998116 5.902826,1.433481 10.213469,1.511742 l 2.385622,0.04331 0.31997,-0.378744 c 0.479942,-0.5681 0.556801,-0.702506 0.556514,-0.973187 -4.91e-4,-0.465044 -0.452609,-0.962096 -1.017077,-1.118164 -0.154355,-0.04268 -1.275183,-0.125189 -2.490729,-0.183359 C 17.516417,33.572689 15.680478,33.344374 13.444692,32.79411 10.12342,31.976691 7.9116749,30.753425 7.2667417,29.377228 L 7.0775945,28.973615 v -2.256891 c 0,-1.241289 0.020314,-2.277189 0.045142,-2.301999 0.024828,-0.02481 0.4949129,0.180204 1.0446323,0.455588 1.7946098,0.899017 3.3666002,1.467567 5.4293562,1.963664 2.156535,0.518652 3.417361,0.672564 6.305626,0.769743 2.186546,0.07357 4.97756,-0.0021 6.476081,-0.175512 2.630475,-0.304454 5.750778,-1.168729 7.760981,-2.149669 1.921748,-0.937776 3.218384,-1.978702 4.087058,-3.281048 l 0.447872,-0.671466 0.04569,-4.665731 c 0.05617,-5.736781 0.002,-6.617859 -0.4689,-7.6275096 C 38.037287,8.5742931 36.865395,7.3814946 36.066814,6.8094983 35.343795,6.2916244 33.798569,5.4989171 32.788676,5.1277991 31.169498,4.5327799 28.792768,3.9282678 27.389311,3.754492 25.753945,3.552001 21.18903,3.3652165 19.215512,3.4200412 16.67363,3.4906554 13.058931,4.1611645 10.778992,4.984975 7.2853925,6.2473177 4.7807944,8.3361013 4.5165359,10.207735 c -0.3251138,2.302648 -0.3774029,23.4601 -0.067774,27.423174 0.063924,0.818195 0.089824,0.926818 0.3447697,1.445943 0.6301857,1.283197 1.9604975,2.459673 3.9050702,3.45349 1.9533272,0.998292 4.8022202,1.84451 7.2544062,2.154807 1.507437,0.190749 4.716294,0.351329 7.586924,0.37967 l 1.096997,0.01083 z"
     id="path17"
     inkscape:connector-curvature="0"
     transform="scale(0.75)" />
  <path
     style="fill:#ffffff;stroke-width:0.07016137"
     d="m 35.668353,46.151944 c -0.716835,-0.11107 -1.889561,-0.625175 -2.841457,-1.245652 -0.700061,-0.456323 -1.717712,-1.411467 -2.206407,-2.070884 -0.721097,-0.973006 -1.218045,-2.142494 -1.442014,-3.393551 -0.179737,-1.003978 -0.120114,-2.769822 0.124849,-3.69767 0.351765,-1.332384 1.047493,-2.53315 2.09523,-3.616183 1.228552,-1.269941 2.693556,-2.074291 4.480283,-2.459868 0.788673,-0.170196 2.607901,-0.173022 3.348473,-0.0052 1.677731,0.38019 3.050771,1.127767 4.309922,2.346616 0.811076,0.785117 1.404056,1.596915 1.872863,2.563974 0.509984,1.051999 0.534758,1.206955 0.529292,3.310584 -0.0056,2.153847 -0.05166,2.41784 -0.624421,3.57823 -0.910261,1.844161 -2.369864,3.247298 -4.349201,4.180948 -1.074998,0.507074 -1.368691,0.554037 -3.403055,0.544171 -0.945424,-0.0046 -1.797885,-0.02057 -1.894357,-0.03551 z m 0.983273,-4.190819 c 0.79458,-0.525828 0.72914,-1.367791 -0.182873,-2.352874 L 36.09496,39.20451 38.986297,39.15839 c 2.896024,-0.0462 3.404651,-0.08986 3.651719,-0.313453 0.545204,-0.493403 0.429498,-1.589674 -0.209463,-1.984573 -0.239502,-0.148021 -0.372811,-0.16504 -1.668513,-0.213012 -0.774518,-0.02868 -1.944949,-0.05731 -2.600958,-0.06362 -0.656009,-0.0063 -1.361581,-0.03204 -1.567938,-0.05716 l -0.375194,-0.04568 0.428273,-0.484516 c 0.483939,-0.547493 0.608476,-0.858152 0.536481,-1.338255 -0.0392,-0.261395 -0.116071,-0.397391 -0.377361,-0.667596 -0.63238,-0.653957 -1.115729,-0.530289 -2.302298,0.589059 -1.191564,1.124059 -2.645676,2.816616 -2.73889,3.188011 -0.101024,0.402512 0.640197,1.379784 2.422272,3.193674 0.982982,1.000531 1.373125,1.257024 1.850549,1.216609 0.205146,-0.01737 0.440235,-0.1 0.61665,-0.216743 z"
     id="path19"
     inkscape:connector-curvature="0"
     transform="scale(0.75)" />
  <path
     style="fill:#ffffff;stroke-width:0.07016137"
     d="M 19.250592,24.962787 C 15.136913,24.673604 11.75443,23.827038 9.3162484,22.476423 7.9728393,21.732251 7.3819116,21.135077 7.1809588,20.318563 7.0831709,19.92123 7.0070775,16.932682 7.0760168,16.196997 c 0.042152,-0.449827 0.067766,-0.526431 0.1660323,-0.496558 0.063905,0.01943 0.6529254,0.286237 1.3089342,0.59291 3.6615977,1.711737 6.2525727,2.343408 10.4189637,2.540111 3.559896,0.168069 6.96392,0.0117 9.244674,-0.424665 0.931989,-0.178314 2.212991,-0.495462 3.138808,-0.777102 1.410059,-0.428949 3.554465,-1.353496 4.330568,-1.867096 0.217557,-0.143973 0.288041,-0.162808 0.33357,-0.08914 0.08706,0.140866 0.164487,2.27088 0.126128,3.469792 -0.03798,1.186919 -0.08226,1.344589 -0.539427,1.920645 -1.545763,1.947741 -6.04327,3.469898 -11.44238,3.872612 -0.853688,0.06368 -4.1211,0.07983 -4.911296,0.02428 z"
     id="path21"
     inkscape:connector-curvature="0"
     transform="scale(0.75)" />
  <path
     style="fill:#ffffff;stroke-width:0.07016137"
     d="M 19.706641,16.267898 C 15.749396,16.070754 12.399848,15.308939 9.8193431,14.01915 8.4200283,13.319744 7.612821,12.650082 7.2668688,11.90161 6.681243,10.6346 7.5058502,9.4334432 9.756254,8.2754679 15.092211,5.5297804 25.468173,5.2371777 31.926869,7.6502553 c 2.548913,0.9523169 4.231243,2.3587977 4.231243,3.5374517 0,0.97948 -1.159961,2.086127 -3.137589,2.993383 -2.448358,1.123207 -4.624556,1.642851 -8.157021,1.947775 -1.218611,0.105191 -4.214724,0.185968 -5.156861,0.139033 z"
     id="path23"
     inkscape:connector-curvature="0"
     transform="scale(0.75)" />
</svg>
