<?xml version="1.0" encoding="UTF-8" standalone="no"?>
<svg
   width="3840"
   height="3840"
   viewBox="0 0 3840 3840"
   version="1.1"
   id="svg1"
   sodipodi:docname="logo.svg"
   inkscape:version="1.4.2 (f4327f4, 2025-05-13)"
   xmlns:inkscape="http://www.inkscape.org/namespaces/inkscape"
   xmlns:sodipodi="http://sodipodi.sourceforge.net/DTD/sodipodi-0.dtd"
   xmlns="http://www.w3.org/2000/svg"
   xmlns:svg="http://www.w3.org/2000/svg">
  <defs
     id="defs1" />
  <sodipodi:namedview
     id="namedview1"
     pagecolor="#ffffff"
     bordercolor="#000000"
     borderopacity="0.25"
     inkscape:showpageshadow="2"
     inkscape:pageopacity="0.0"
     inkscape:pagecheckerboard="0"
     inkscape:deskcolor="#d1d1d1"
     inkscape:zoom="0.15299479"
     inkscape:cx="-457.53191"
     inkscape:cy="1598.0936"
     inkscape:window-width="2560"
     inkscape:window-height="1377"
     inkscape:window-x="2552"
     inkscape:window-y="-8"
     inkscape:window-maximized="1"
     inkscape:current-layer="svg1" />
  <g
     id="g4"
     transform="matrix(0.97395619,0,0,0.97395619,-331.92479,410.97886)"
     inkscape:label="dbman">
    <g
       id="g5"
       inkscape:label="man"
       style="fill:#000000;fill-opacity:1">
      <path
         style="fill:#000000;stroke:none;fill-opacity:1"
         d="m 2296,1303 c -11.9333,22.8738 -32.1445,43.3594 -47.625,64 -33.9204,45.2273 -68.2786,90.1628 -101.375,136 -23.8967,33.0959 -47.5225,65.2109 -56.2725,106 -5.5498,25.8713 -3.7275,52.7178 -3.7275,79 0,34.3457 -1,68.6252 -1,103 0,105.6956 -2,211.3424 -2,317 0,36.334 -0.9985,72.728 -1,109 -7e-4,17.1516 3.783,39.4562 -0.8054,56 -4.0235,14.507 -14.555,28.6471 -21.426,42 -16.1673,31.4178 -32.7402,62.6191 -48.9769,94 -49.5695,95.8042 -99.0578,191.7053 -149.6016,287 -24.2213,45.6665 -59.9413,96.0159 -70.6938,147 -25.1146,119.0847 103.6521,214.1802 211.5037,159.6763 36.451,-18.4209 53.5906,-51.3277 71.8098,-85.6763 15.6807,-29.563 31.1336,-59.2566 46.4675,-89 56.3177,-109.2393 112.9439,-218.4277 170.5325,-327 36.1548,-68.1631 81.2874,-138.4048 83.1626,-218 1.7283,-73.3575 3.2984,-146.6904 5.9741,-220 1.0293,-28.2032 -0.3857,-56.9062 2.3858,-85 2.2473,-22.781 1.3769,-46.1233 2.573,-69 0.2907,-5.5613 -2.553,-20.2333 3.5862,-23.3025 7.6982,-3.8486 32.6506,10.3428 40.5085,13.3886 38.6084,14.965 77.3577,29.5535 116,44.43 44.6184,17.1771 89.3125,34.1686 134,51.1629 11.3999,4.3352 42.2017,10.0405 48.626,20.7187 4.5657,7.5889 -3.4829,27.3147 -5.1406,35.6023 -6.47,32.3484 -12.8245,64.7622 -19.8255,97 -17.3266,79.7867 -32.8379,159.9984 -49.1484,240 -8.606,42.2118 -23.7632,86.6965 -17.0684,130 20.1345,130.2341 202.7351,169.0044 270.9299,54 14.3248,-24.1572 18.8411,-50.918 24.4346,-78 7.0928,-34.3409 14.145,-68.7025 21.4236,-103 22.761,-107.2523 45.3552,-214.5723 67.2573,-322 7.8565,-38.5353 20.6192,-78.5356 21.4832,-118 1.0735,-49.0398 -21.0217,-96.8859 -54.3042,-131.9053 -32.1968,-33.8769 -76.0842,-47.7639 -118.6675,-63.6045 -52.7192,-19.611 -105.1843,-39.9011 -158,-59.2514 -24.0842,-8.8238 -47.9067,-18.3687 -72,-27.1641 -4.7703,-1.7414 -21.8323,-5.1467 -22.2634,-11.3166 -0.6787,-9.7124 20.4282,-30.0735 26.2907,-37.7581 25.7535,-33.7583 50.8697,-68.0293 76.3477,-102 46.6902,-62.2534 93.0596,-124.7461 139.75,-187 31.0273,-41.3699 67.3711,-82.2698 90.106,-129 34.4509,-70.812 30.0898,-155.9407 -11.6831,-223 C 2888.657,898.90845 2793.8799,857.05103 2701,871.62402 c -28.2632,4.43457 -54.6702,17.36158 -81,27.89356 -43.7349,17.49414 -87.2683,35.48901 -131,52.99975 -142.8108,57.18307 -285.7017,114.32547 -428,172.77397 -55.2003,22.6733 -110.6511,44.7724 -166,67.0866 -41.5222,16.74 -81.7155,32.4014 -103.7131,74.6221 -42.9665,82.4666 18.5449,182.168 110.7131,183.7505 38.5238,0.6616 75.2561,-19.6458 110,-33.8609 61.937,-25.3408 124.3074,-49.6821 186,-75.6132 29.6047,-12.4439 66.1633,-34.3106 98,-38.2764"
         id="path3"
         inkscape:label="body" />
      <path
         style="fill:#000000;stroke:none;fill-opacity:1"
         d="M 3152,460.47021 C 3060.3743,468.00122 2977.5466,510.4812 2934.7871,596 2864.6453,736.28394 2945.6089,909.12451 3098,946.26416 c 23.8186,5.80493 49.4783,8.62061 74,6.50122 C 3293.4136,942.27222 3392.3459,844.22266 3400.8452,722 3410.0852,589.12744 3291.4604,449.00732 3152,460.47021"
         id="path2"
         inkscape:label="head" />
    </g>
    <path
       style="fill:#d396ed;stroke:none"
       d="m 2283.5388,19.380442 c -32.869,1.275634 -52.0945,26.339599 -63.9152,54.401855 -22.0966,52.457643 -16.8893,116.943183 -9.7302,172.000003 21.5097,165.42114 93.1942,327.61884 190.5059,462 27.5062,37.98425 64.6076,77.55988 106.1395,100.17725 17.7426,9.66223 38.3732,18.10974 59,16.66784 34.04,-2.37957 52.9716,-27.32434 65.0292,-56.84509 20.4057,-49.95947 18.3922,-118.78528 8.1808,-171 -7.3295,-37.47839 -12.5883,-75.08716 -22.7627,-112 -34.1035,-123.72736 -89.6106,-245.21954 -167.1863,-348 -36.8123,-48.772713 -97.3471,-120.037479 -165.261,-117.401858 m 226,831.401858 v -1 c -92.7061,2.64966 -160.814,-87.87085 -205.5957,-158 -25.9844,-40.69214 -47.9409,-83.95807 -67.6353,-128 -42.6475,-95.37109 -82.1539,-196.71478 -95.0183,-301 -6.0563,-49.09583 -8.543,-100.57941 8.4045,-148 8.3272,-23.300423 22.3809,-38.209723 35.8448,-58.000003 -7.6143,-0.65234 -12.2775,4.29565 -19.1418,6.50952 -19.2817,6.21863 -37.0188,15.82593 -56,22.69446 -29.7733,10.77368 -59.4035,23.096313 -88.306,36.031253 -14.8178,6.63159 -28.8444,10.10028 -41.5246,21.23895 -31.2077,27.41358 -44.6422,71.62714 -49.6953,111.52582 -10.687,84.38397 11.3135,171.45618 37.557,251 33.0492,100.17187 75.3902,200.95581 135.7334,288 42.3084,61.0293 98.8263,123.3465 175.3773,137.05219 28.5577,5.11297 52.2606,-7.82715 78,-17.61701 50.0461,-19.03479 104.9502,-36.92108 152,-62.43518 m -269,110 v -1 c -17.136,-2.0048 -32.4815,-2.8179 -49,-8.71875 -55.1407,-19.69775 -96.3987,-66.74066 -130.4746,-112.28662 -45.1646,-60.36707 -78.3898,-129.79077 -107.581,-198.99463 -31.461,-74.58502 -60.8477,-152.01721 -75.1358,-232 -10.4052,-58.24725 -17.5654,-121.62927 1.199,-179 7.2167,-22.06464 18.1061,-47.51147 37.9924,-61 -6.5563,-3.61151 -16.9073,2.47424 -23.0947,5.51324 -16.1975,7.95545 -34.1523,14.60248 -50.9073,21.33533 -24.8686,9.99329 -49.8259,21.27313 -74.9986,30.38019 -14.1392,5.1153 -33.2432,9.51624 -45.5298,18.20099 -30.9797,21.89776 -48.7701,59.30536 -56.6466,95.57025 -14.2827,65.76013 -3.964,134.52686 11.4926,199 29.8816,124.64392 82.177,250.99371 153.0239,358 39.1844,59.1837 95.1842,124.8886 167.6605,141.5459 37.7872,8.6846 65.5745,-5.4186 100,-18.9661 47.4858,-18.687 95.0477,-37.591 142,-57.5798 m -261,105 v -1 c -69.911,5.8988 -130.7496,-56.9552 -169.8204,-107 -62.3683,-79.88605 -104.2157,-174.9082 -140.1295,-269 -23.7274,-62.16437 -47.2466,-127.68756 -55.869,-194 -7.1529,-55.01031 -12.114,-111.51404 6.4397,-165 6.832,-19.69495 17.7792,-44.78284 36.3792,-56 v -2 c -7.7194,-1.49567 -12.9454,4.62054 -20.0259,6.68359 -23.8642,6.95325 -47.9118,18.02326 -70.3045,28.73145 -34.6967,16.59192 -77.6676,23.42651 -109.2251,46.13324 -34.0527,24.5022 -49.2822,70.703 -54.9872,110.45172 -9.433,65.72302 2.2417,132.44208 18.7248,196 30.9661,119.40332 81.0016,240.24664 149.6761,343 39.7087,59.4137 95.8085,125.1908 169.1418,141.0957 40.2477,8.7291 73.6545,-9.472 110,-24.3718 42.751,-17.5258 89.4752,-31.5261 130,-53.7239 z"
       id="path1"
       inkscape:label="db" />
  </g>
  <path
     style="fill:#d396ed;stroke-width:6.47795;stroke-linecap:round;stroke-linejoin:round;fill-opacity:1"
     d="m 1013.4375,3429.3443 955.1002,0.7496 -1.2653,-404.9338 h 928.8168 l -2.5309,-404.9337 947.7929,1e-4 7.5431,1227.8757 -2835.4291,-3.5004 z"
     id="path5"
     sodipodi:nodetypes="ccccccccc"
     inkscape:label="floor" />
</svg>
