<?xml version="1.0" encoding="UTF-8" standalone="no"?>
<svg
   xmlns:dc="http://purl.org/dc/elements/1.1/"
   xmlns:cc="http://creativecommons.org/ns#"
   xmlns:rdf="http://www.w3.org/1999/02/22-rdf-syntax-ns#"
   xmlns:svg="http://www.w3.org/2000/svg"
   xmlns="http://www.w3.org/2000/svg"
   xmlns:sodipodi="http://sodipodi.sourceforge.net/DTD/sodipodi-0.dtd"
   xmlns:inkscape="http://www.inkscape.org/namespaces/inkscape"
   version="1.0"
   width="283.000000pt"
   height="281.000000pt"
   viewBox="0 0 283.000000 281.000000"
   preserveAspectRatio="xMidYMid meet"
   id="svg97"
   sodipodi:docname="logo-big.svg"
   inkscape:version="0.92.3 (2405546, 2018-03-11)">
  <defs
     id="defs101" />
  <sodipodi:namedview
     pagecolor="#ffffff"
     bordercolor="#666666"
     borderopacity="1"
     objecttolerance="10"
     gridtolerance="10"
     guidetolerance="10"
     inkscape:pageopacity="0"
     inkscape:pageshadow="2"
     inkscape:window-width="2560"
     inkscape:window-height="1361"
     id="namedview99"
     showgrid="false"
     inkscape:zoom="3.0373665"
     inkscape:cx="188.66667"
     inkscape:cy="187.33333"
     inkscape:window-x="2551"
     inkscape:window-y="-9"
     inkscape:window-maximized="1"
     inkscape:current-layer="svg97" />
  <metadata
     id="metadata85">
Created by potrace 1.15, written by Peter Selinger 2001-2017
<rdf:RDF>
  <cc:Work
     rdf:about="">
    <dc:format>image/svg+xml</dc:format>
    <dc:type
       rdf:resource="http://purl.org/dc/dcmitype/StillImage" />
    <dc:title></dc:title>
  </cc:Work>
</rdf:RDF>
</metadata>
  <g
     transform="translate(0.000000,281.000000) scale(0.100000,-0.100000)"
     id="g95"
     stroke="none"
     fill="#000000">
    <path
       d="M1005 2694 c-267 -26 -379 -51 -505 -111 -78 -37 -108 -59 -165 -118 -38 -39 -91 -107 -117 -151 -47 -78 -48 -82 -58 -199 -5 -66 -10 -214 -10 -330 0 -284 19 -925 30 -1002 18 -133 118 -292 228 -362 100 -64 314 -129 555 -171 137 -23 205 -26 367 -16 147 10 184 2 279 -55 35 -21 107 -56 160 -76 l96 -38 160 1 c173 1 259 17 373 69 201 92 335 354 336 655 2 240 -110 436 -335 585 -111 74 -153 125 -165 200 -3 24 2 114 11 202 10 87 20 182 23 212 2 30 -1 100 -8 155 -12 96 -16 105 -66 182 -170 259 -428 359 -949 369 -110 1 -218 1 -240 -1z m570 -43 c302 -45 473 -140 601 -333 37 -56 47 -81 60 -155 17 -96 16 -140 -12 -386 -28 -248 -7 -304 151 -409 153 -101 239 -201 294 -339 59 -148 63 -247 20 -449 -41 -187 -161 -362 -292 -424 -114 -53 -197 -69 -372 -70 -159 -1 -160 -1 -245 33 -47 18 -125 57 -175 85 l-89 51 -116 0 c-63 -1 -160 -2 -215 -3 -109 -3 -263 19 -437 63 -323 82 -440 165 -518 366 -29 76 -32 93 -41 282 -16 307 -17 1171 -1 1229 17 66 86 180 153 252 122 131 295 195 610 226 141 13 472 3 624 -19z"
       id="path87" />
    <path
       d="M1025 2564 c-143 -19 -192 -29 -275 -50 -213 -55 -380 -171 -414 -285 -24 -79 -24 -1429 -1 -1507 31 -104 163 -205 350 -267 147 -50 254 -66 477 -72 l206 -6 26 26 c31 31 33 56 8 87 -18 22 -25 23 -148 21 -334 -5 -648 77 -757 198 l-37 41 0 136 0 135 31 -22 c17 -12 67 -37 111 -56 160 -67 358 -103 576 -106 l144 -2 24 28 c30 35 30 52 1 81 -22 22 -33 23 -198 29 -313 10 -589 96 -665 207 -22 32 -24 44 -24 163 0 71 3 127 8 125 4 -2 39 -19 77 -39 94 -49 236 -93 370 -115 146 -24 458 -25 595 -1 278 48 475 144 558 271 l27 41 3 290 c4 337 2 345 -84 430 -93 91 -256 160 -475 201 -80 15 -444 28 -514 18z m490 -155 c184 -31 332 -89 405 -160 65 -63 66 -113 3 -175 -43 -43 -167 -103 -274 -133 -171 -48 -459 -65 -664 -40 -232 28 -451 117 -505 204 -46 74 -6 143 118 208 214 113 587 152 917 96z m450 -725 c-8 -43 -81 -109 -161 -145 -353 -160 -961 -142 -1246 37 -88 55 -98 77 -98 229 0 69 3 125 8 123 269 -137 421 -172 747 -172 216 0 318 13 480 59 89 26 211 78 250 108 20 15 20 14 23 -96 2 -62 0 -126 -3 -143z"
       id="path89" />
    <path
       d="M1915 1318 c-91 -17 -211 -83 -284 -156 -223 -224 -230 -574 -16 -800 118 -125 258 -186 425 -186 250 1 464 157 546 399 35 104 37 245 5 345 -77 242 -308 412 -556 409 -38 -1 -92 -5 -120 -11z m206 -128 c133 -25 256 -120 320 -247 33 -66 34 -71 34 -188 0 -114 -2 -123 -32 -188 -44 -93 -119 -169 -212 -215 -73 -36 -77 -37 -190 -37 -109 0 -120 2 -183 32 -162 77 -259 225 -260 398 -1 100 19 172 70 251 97 150 276 227 453 194z"
       id="path91" />
    <path
       d="M1867 913 c-74 -77 -127 -141 -127 -155 0 -20 27 -57 103 -140 85 -94 109 -105 155 -72 32 22 29 66 -9 109 l-31 35 164 0 c147 0 167 2 181 18 23 25 21 68 -3 92 -18 18 -33 20 -175 20 -85 0 -155 4 -155 8 0 5 11 19 25 32 31 29 33 72 5 100 -35 35 -62 25 -133 -47z"
       id="path93" />
  </g>
  <path
     style="fill:#ffffff;stroke-width:0.32923257"
     d="m 148.00644,183.54167 c -26.83223,-1.47272 -52.096263,-7.47545 -68.539978,-16.28508 -8.467773,-4.53657 -13.655704,-8.77032 -15.499711,-12.64897 -2.000768,-4.20838 -2.219241,-6.25029 -2.219241,-20.74166 0,-7.15257 0.118046,-13.69409 0.262324,-14.53671 l 0.262324,-1.53202 6.322328,3.0484 c 27.19694,13.11338 43.507504,17.50194 71.839604,19.32936 8.0249,0.5176 36.34103,0.50576 43.95255,-0.0184 14.78332,-1.018 25.03763,-2.75494 38.86939,-6.58394 12.82023,-3.54899 28.58773,-10.07541 35.42812,-14.66427 1.24785,-0.83713 2.35137,-1.36885 2.51052,-1.20969 0.65222,0.65222 0.94144,5.86861 0.99679,17.97802 0.0451,9.86164 -0.0444,13.24093 -0.3856,14.56817 -1.25466,4.88007 -8.10525,11.72609 -16.67581,16.66467 -8.14674,4.69436 -23.67713,9.86263 -38.18433,12.70714 -18.30787,3.58973 -39.42527,4.99601 -58.93928,3.92495 z"
     id="path103"
     inkscape:connector-curvature="0"
     transform="scale(0.75)" />
  <path
     style="fill:#ffffff;stroke-width:0.32923257"
     d="m 147.57343,122.32234 c -18.3039,-0.79535 -34.29687,-3.62668 -50.104186,-8.87024 -14.56639,-4.83192 -24.074038,-9.86106 -30.140468,-15.943023 -6.514138,-6.530812 -7.373211,-12.801632 -2.65884,-19.408232 5.911801,-8.284646 23.099761,-16.967975 43.334754,-21.892643 40.4065,-9.833889 92.50006,-7.263906 126.83178,6.257117 13.38876,5.27296 23.37507,12.720733 26.65029,19.875747 1.12858,2.465471 1.07467,6.248324 -0.12556,8.81027 -1.11475,2.379479 -3.3385,5.287696 -5.59966,7.323203 -6.79492,6.116821 -22.95569,13.731061 -37.29933,17.573791 -18.0746,4.84228 -46.31589,7.34177 -70.88878,6.27401 z"
     id="path105"
     inkscape:connector-curvature="0"
     transform="scale(0.75)" />
  <path
     style="fill:#ffffff;stroke-width:0.32923257"
     d="m 250.39777,362.65613 c -7.79404,-1.05219 -23.50442,-7.9618 -40.91731,-17.99591 l -7.15064,-4.12053 -25.78857,0.19941 c -16.32844,0.12626 -27.37923,0.0768 -30.12478,-0.13489 -14.13195,-1.0895 -28.63868,-3.61825 -46.14875,-8.04445 C 57.641835,321.78478 41.914452,311.0118 31.515042,285.46538 27.262983,275.02009 26.574161,270.90483 25.537891,249.75583 23.912692,216.58753 23.170867,144.41648 24.059045,105.8812 24.475993,87.791123 24.770855,83.705452 25.902658,80.335648 29.968381,68.230464 42.483776,50.480678 52.858231,42.10628 66.36956,31.199755 83.95506,24.718103 110.66394,20.800292 c 15.60256,-2.288674 27.9741,-3.007929 46.23178,-2.687821 30.34756,0.532079 48.41679,2.01259 64.79298,5.308846 32.46915,6.535501 52.45686,18.809845 67.79905,41.635039 5.297,7.88057 6.93694,12.101276 8.63473,22.223199 1.99493,11.893428 1.80894,18.026805 -1.45759,48.067955 -1.26034,11.59093 -1.65631,16.82466 -1.65517,21.87747 0.003,12.05264 2.73087,19.33412 9.75234,26.02896 3.22737,3.07724 4.9872,4.42981 12.63454,9.71069 9.3759,6.47454 13.85274,10.11969 19.66078,16.0083 6.49393,6.584 10.76531,12.44514 14.892,20.43461 4.27099,8.26882 7.79114,18.44013 9.28223,26.82045 0.63226,3.55351 0.75414,5.4095 0.76412,11.63563 0.0152,9.40529 -1.068,18.04117 -3.74729,29.87867 -3.90598,17.25715 -13.03439,34.23479 -24.52418,45.61185 -5.64331,5.58794 -10.26661,8.69639 -17.6826,11.88876 -9.28636,3.99754 -16.9155,5.92095 -28.27599,7.12877 -4.41915,0.46982 -34.30936,0.69735 -37.3679,0.28446 z m 30.2894,-11.86334 c 10.39042,-1.06915 22.54789,-5.25132 31.44171,-10.81594 6.90458,-4.32002 13.95993,-10.53892 18.84978,-16.61506 8.13546,-10.10914 14.07089,-22.64087 16.18482,-34.17171 2.82142,-15.39004 1.58401,-30.12221 -3.59147,-42.75852 -8.12192,-19.83026 -23.76159,-35.47519 -43.56626,-43.58091 -10.01406,-4.09859 -19.11333,-5.68022 -30.6771,-5.33229 -10.8499,0.32646 -16.71177,1.38292 -24.30606,4.38057 -27.9065,11.01541 -46.54328,34.79797 -50.14406,63.98929 -0.50832,4.12088 -0.49929,13.15646 0.0172,17.28471 2.25876,18.05187 10.10722,33.59354 23.44506,46.42638 17.28496,16.63052 38.05974,23.69252 62.34632,21.19348 z m -95.42499,-29.02236 c 1.43685,-1.49665 2.93882,-3.39536 3.3377,-4.21935 1.35596,-2.80103 0.73925,-5.73976 -1.79355,-8.54652 -2.25796,-2.5022 -1.53668,-2.40958 -20.69209,-2.65715 -20.96861,-0.27101 -29.98114,-0.96454 -44.50274,-3.42456 -19.64731,-3.32835 -38.110175,-9.80056 -48.176233,-16.88831 -3.498422,-2.46333 -5.182661,-3.98476 -8.605044,-7.77324 l -3.247329,-3.5947 v -17.88389 -17.8839 l 2.551552,1.83598 c 2.906149,2.09113 13.199319,7.25625 18.884333,9.47617 16.501742,6.4437 35.173291,10.44525 57.086081,12.23428 3.44048,0.28089 12.99646,0.64441 21.2355,0.80781 l 14.98009,0.29709 0.65846,-0.75616 c 3.90226,-4.48129 5.74711,-7.34554 5.74711,-8.92274 0,-1.78536 -3.01572,-5.76616 -5.22035,-6.89094 -2.10053,-1.07167 -7.45496,-1.58217 -22.74996,-2.16899 -21.49401,-0.82466 -37.92525,-3.17512 -53.99414,-7.72378 C 78.930389,230.90773 64.355315,221.40304 62.171084,211.92191 61.68494,209.8117 61.55377,183.23377 62.016131,180.52452 l 0.268621,-1.57402 6.316031,3.27939 c 12.660829,6.57371 23.075384,10.46169 37.922357,14.15722 13.0998,3.26066 22.62715,4.55074 39.34329,5.32741 9.31335,0.43272 33.86921,0.22992 40.98946,-0.33852 11.24276,-0.89756 20.76737,-2.50484 32.25251,-5.44262 17.83077,-4.56093 31.9557,-10.57659 42.37156,-18.0456 6.86538,-4.92304 10.71741,-8.88907 15.25629,-15.70782 l 2.7394,-4.1154 0.20188,-17.1201 c 0.31783,-26.95498 0.24998,-52.582257 -0.15082,-56.95942 -0.9002,-9.831296 -2.40453,-13.301678 -8.53528,-19.690291 C 263.6357,56.629635 255.19281,51.084635 242.82542,45.796298 233.09954,41.637471 214.07605,36.318817 203.48213,34.796556 193.46815,33.357628 159.38766,31.86383 145.20797,32.242315 133.1016,32.565459 115.19262,35.381118 99.938489,39.359607 76.165493,45.559934 56.702844,57.171029 48.049078,70.315972 45.824114,73.695659 44.592946,77.044896 44.172786,80.860932 41.819931,102.2304 41.564963,238.9512 43.816374,271.97903 c 0.380854,5.58705 0.823996,7.45359 2.615545,11.0168 5.259126,10.45989 18.718826,20.83631 36.22186,27.92434 16.902418,6.84481 32.370711,10.36512 52.347981,11.91348 5.42028,0.42011 34.51773,1.49134 43.66025,1.60736 l 3.98772,0.0506 z"
     id="path107"
     inkscape:connector-curvature="0"
     transform="scale(0.75)" />
  <path
     style="fill:#ffffff;stroke-width:0.32923257"
     d="m 258.62859,332.03174 c -2.9825,-0.42452 -5.98585,-1.48336 -10.62179,-3.74476 -7.41207,-3.61559 -12.63255,-7.23284 -17.66018,-12.23669 -8.44165,-8.40172 -13.71096,-18.18184 -16.07184,-29.83018 -0.66307,-3.27155 -0.75105,-4.66983 -0.75105,-11.93645 0,-5.36413 0.15173,-9.09082 0.43565,-10.70006 2.94366,-16.68428 13.36537,-31.60533 28.15253,-40.30678 5.81886,-3.42407 13.0258,-6.08614 19.64439,-7.25614 4.25917,-0.75292 12.24054,-1.01691 16.29348,-0.53892 13.26642,1.5646 24.73857,7.07031 34.68837,16.64763 5.62944,5.4187 9.31271,10.51867 13.08671,18.12029 3.86525,7.78543 3.86462,7.78169 3.89357,23.21089 0.0269,14.34729 -0.13232,15.91362 -2.12874,20.93931 -5.90458,14.86392 -16.12932,26.02715 -30.50633,33.3064 -8.90775,4.51009 -9.78496,4.67302 -24.95624,4.63529 -6.33772,-0.0158 -12.41206,-0.15519 -13.49853,-0.30983 z m 5.79694,-28.80528 c 3.45874,-1.72591 4.90312,-3.78989 4.90312,-7.00643 0,-3.46264 -1.42209,-6.10729 -6.20569,-11.54068 l -1.76105,-2.00026 h 18.88978 c 18.91528,0 23.47193,-0.21084 25.33077,-1.17209 5.43254,-2.80927 4.71181,-12.68517 -1.10273,-15.11036 -2.00807,-0.83754 -6.73737,-1.15487 -17.37252,-1.16565 -9.81504,-0.01 -21.92945,-0.44947 -23.54167,-0.85412 -1.04675,-0.26271 -0.88426,-0.55229 2.24976,-4.00929 2.70294,-2.9815 3.51335,-4.69354 3.51335,-7.42219 0,-2.73788 -0.62017,-4.155 -2.78842,-6.37171 -4.48857,-4.5889 -7.62769,-3.59445 -16.58922,5.25535 -9.19771,9.08301 -18.15565,19.90945 -18.15462,21.94141 5.6e-4,1.07867 1.9735,4.58221 4.18242,7.4271 3.40148,4.38079 10.17997,11.94941 14.89054,16.62624 6.45105,6.40485 9.28467,7.53416 13.55618,5.40268 z"
     id="path109"
     inkscape:connector-curvature="0"
     transform="scale(0.75)" />
</svg>
